<mxfile host="app.diagrams.net" modified="2022-12-15T02:42:48.756Z" agent="5.0 (Windows NT 10.0; Win64; x64) AppleWebKit/537.36 (KHTML, like Gecko) Chrome/107.0.0.0 Safari/537.36 OPR/93.0.0.0" version="20.7.2" etag="P9SVavSzAEV4vg9YIHEJ" type="github">
  <diagram id="m5d0qIqOXzMqOtAx8hw-" name="Página-1">
    <mxGraphModel dx="2466" dy="913" grid="1" gridSize="10" guides="1" tooltips="1" connect="1" arrows="1" fold="1" page="1" pageScale="1" pageWidth="827" pageHeight="1169" math="0" shadow="0">
      <root>
        <mxCell id="0" />
        <mxCell id="1" parent="0" />
        <mxCell id="C9lepdYtcVU4f9QdhHSY-163" value="Imovel" style="rounded=0;whiteSpace=wrap;html=1;" vertex="1" parent="1">
          <mxGeometry x="350" y="420" width="80" height="40" as="geometry" />
        </mxCell>
        <mxCell id="C9lepdYtcVU4f9QdhHSY-164" value="Tem" style="rhombus;whiteSpace=wrap;html=1;" vertex="1" parent="1">
          <mxGeometry x="360" y="500" width="60" height="40" as="geometry" />
        </mxCell>
        <mxCell id="C9lepdYtcVU4f9QdhHSY-165" value="Categoria" style="rounded=0;whiteSpace=wrap;html=1;" vertex="1" parent="1">
          <mxGeometry x="350" y="585" width="80" height="45" as="geometry" />
        </mxCell>
        <mxCell id="C9lepdYtcVU4f9QdhHSY-166" value="" style="endArrow=none;html=1;rounded=0;entryX=0.5;entryY=1;entryDx=0;entryDy=0;exitX=0.5;exitY=0;exitDx=0;exitDy=0;" edge="1" parent="1" source="C9lepdYtcVU4f9QdhHSY-164" target="C9lepdYtcVU4f9QdhHSY-163">
          <mxGeometry width="50" height="50" relative="1" as="geometry">
            <mxPoint x="430" y="510" as="sourcePoint" />
            <mxPoint x="480" y="460" as="targetPoint" />
          </mxGeometry>
        </mxCell>
        <mxCell id="C9lepdYtcVU4f9QdhHSY-167" value="" style="endArrow=none;html=1;rounded=0;entryX=0.5;entryY=1;entryDx=0;entryDy=0;exitX=0.5;exitY=0;exitDx=0;exitDy=0;" edge="1" parent="1" source="C9lepdYtcVU4f9QdhHSY-165" target="C9lepdYtcVU4f9QdhHSY-164">
          <mxGeometry width="50" height="50" relative="1" as="geometry">
            <mxPoint x="430" y="510" as="sourcePoint" />
            <mxPoint x="480" y="460" as="targetPoint" />
          </mxGeometry>
        </mxCell>
        <mxCell id="C9lepdYtcVU4f9QdhHSY-168" value="1:1" style="text;html=1;align=center;verticalAlign=middle;resizable=0;points=[];autosize=1;strokeColor=none;fillColor=none;" vertex="1" parent="1">
          <mxGeometry x="390" y="460" width="40" height="30" as="geometry" />
        </mxCell>
        <mxCell id="C9lepdYtcVU4f9QdhHSY-169" value="1:n" style="text;html=1;align=center;verticalAlign=middle;resizable=0;points=[];autosize=1;strokeColor=none;fillColor=none;" vertex="1" parent="1">
          <mxGeometry x="390" y="555" width="40" height="30" as="geometry" />
        </mxCell>
        <mxCell id="C9lepdYtcVU4f9QdhHSY-170" value="Nome" style="ellipse;whiteSpace=wrap;html=1;" vertex="1" parent="1">
          <mxGeometry x="365" y="650" width="50" height="30" as="geometry" />
        </mxCell>
        <mxCell id="C9lepdYtcVU4f9QdhHSY-171" value="" style="endArrow=none;html=1;rounded=0;entryX=0.5;entryY=1;entryDx=0;entryDy=0;" edge="1" parent="1" source="C9lepdYtcVU4f9QdhHSY-170" target="C9lepdYtcVU4f9QdhHSY-165">
          <mxGeometry width="50" height="50" relative="1" as="geometry">
            <mxPoint x="430" y="510" as="sourcePoint" />
            <mxPoint x="410" y="640" as="targetPoint" />
          </mxGeometry>
        </mxCell>
        <mxCell id="C9lepdYtcVU4f9QdhHSY-174" value="DataAnuncio" style="ellipse;whiteSpace=wrap;html=1;" vertex="1" parent="1">
          <mxGeometry x="460" y="390" width="90" height="30" as="geometry" />
        </mxCell>
        <mxCell id="C9lepdYtcVU4f9QdhHSY-175" value="" style="endArrow=none;html=1;rounded=0;" edge="1" parent="1" source="C9lepdYtcVU4f9QdhHSY-163" target="C9lepdYtcVU4f9QdhHSY-174">
          <mxGeometry width="50" height="50" relative="1" as="geometry">
            <mxPoint x="430" y="510" as="sourcePoint" />
            <mxPoint x="480" y="460" as="targetPoint" />
          </mxGeometry>
        </mxCell>
        <mxCell id="C9lepdYtcVU4f9QdhHSY-176" value="Fotos" style="ellipse;whiteSpace=wrap;html=1;" vertex="1" parent="1">
          <mxGeometry x="440" y="370" width="50" height="20" as="geometry" />
        </mxCell>
        <mxCell id="C9lepdYtcVU4f9QdhHSY-178" value="" style="endArrow=none;html=1;rounded=0;entryX=0.5;entryY=1;entryDx=0;entryDy=0;" edge="1" parent="1" source="C9lepdYtcVU4f9QdhHSY-163" target="C9lepdYtcVU4f9QdhHSY-176">
          <mxGeometry width="50" height="50" relative="1" as="geometry">
            <mxPoint x="430" y="510" as="sourcePoint" />
            <mxPoint x="480" y="460" as="targetPoint" />
          </mxGeometry>
        </mxCell>
        <mxCell id="C9lepdYtcVU4f9QdhHSY-179" value="Valor Inicial" style="ellipse;whiteSpace=wrap;html=1;" vertex="1" parent="1">
          <mxGeometry x="400" y="340" width="70" height="30" as="geometry" />
        </mxCell>
        <mxCell id="C9lepdYtcVU4f9QdhHSY-180" value="" style="endArrow=none;html=1;rounded=0;" edge="1" parent="1" source="C9lepdYtcVU4f9QdhHSY-163" target="C9lepdYtcVU4f9QdhHSY-179">
          <mxGeometry width="50" height="50" relative="1" as="geometry">
            <mxPoint x="430" y="510" as="sourcePoint" />
            <mxPoint x="480" y="460" as="targetPoint" />
          </mxGeometry>
        </mxCell>
        <mxCell id="C9lepdYtcVU4f9QdhHSY-182" value="Status" style="ellipse;whiteSpace=wrap;html=1;" vertex="1" parent="1">
          <mxGeometry x="300" y="380" width="50" height="30" as="geometry" />
        </mxCell>
        <mxCell id="C9lepdYtcVU4f9QdhHSY-183" value="" style="endArrow=none;html=1;rounded=0;exitX=0.25;exitY=0;exitDx=0;exitDy=0;" edge="1" parent="1" source="C9lepdYtcVU4f9QdhHSY-163" target="C9lepdYtcVU4f9QdhHSY-182">
          <mxGeometry width="50" height="50" relative="1" as="geometry">
            <mxPoint x="390" y="510" as="sourcePoint" />
            <mxPoint x="440" y="460" as="targetPoint" />
          </mxGeometry>
        </mxCell>
        <mxCell id="C9lepdYtcVU4f9QdhHSY-184" value="Data Construção" style="ellipse;whiteSpace=wrap;html=1;" vertex="1" parent="1">
          <mxGeometry x="290" y="335" width="80" height="40" as="geometry" />
        </mxCell>
        <mxCell id="C9lepdYtcVU4f9QdhHSY-185" value="" style="endArrow=none;html=1;rounded=0;entryX=0.675;entryY=0.971;entryDx=0;entryDy=0;entryPerimeter=0;" edge="1" parent="1" target="C9lepdYtcVU4f9QdhHSY-184">
          <mxGeometry width="50" height="50" relative="1" as="geometry">
            <mxPoint x="380" y="420" as="sourcePoint" />
            <mxPoint x="440" y="380" as="targetPoint" />
          </mxGeometry>
        </mxCell>
        <mxCell id="C9lepdYtcVU4f9QdhHSY-187" value="Endereço Completo" style="ellipse;shape=doubleEllipse;whiteSpace=wrap;html=1;" vertex="1" parent="1">
          <mxGeometry x="340" y="295" width="80" height="40" as="geometry" />
        </mxCell>
        <mxCell id="C9lepdYtcVU4f9QdhHSY-188" value="" style="endArrow=none;html=1;rounded=0;entryX=0.5;entryY=1;entryDx=0;entryDy=0;" edge="1" parent="1" target="C9lepdYtcVU4f9QdhHSY-187">
          <mxGeometry width="50" height="50" relative="1" as="geometry">
            <mxPoint x="390" y="420" as="sourcePoint" />
            <mxPoint x="440" y="370" as="targetPoint" />
          </mxGeometry>
        </mxCell>
        <mxCell id="C9lepdYtcVU4f9QdhHSY-189" value="" style="endArrow=none;html=1;rounded=0;entryX=0;entryY=0.5;entryDx=0;entryDy=0;" edge="1" parent="1" target="C9lepdYtcVU4f9QdhHSY-163">
          <mxGeometry width="50" height="50" relative="1" as="geometry">
            <mxPoint x="270" y="440" as="sourcePoint" />
            <mxPoint x="440" y="450" as="targetPoint" />
          </mxGeometry>
        </mxCell>
        <mxCell id="C9lepdYtcVU4f9QdhHSY-191" value="Possui" style="rhombus;whiteSpace=wrap;html=1;" vertex="1" parent="1">
          <mxGeometry x="190" y="417.5" width="80" height="45" as="geometry" />
        </mxCell>
        <mxCell id="C9lepdYtcVU4f9QdhHSY-193" value="1:1" style="text;html=1;strokeColor=none;fillColor=none;align=center;verticalAlign=middle;whiteSpace=wrap;rounded=0;" vertex="1" parent="1">
          <mxGeometry x="290" y="440" width="60" height="30" as="geometry" />
        </mxCell>
        <mxCell id="C9lepdYtcVU4f9QdhHSY-195" value="Histórico" style="rounded=0;whiteSpace=wrap;html=1;" vertex="1" parent="1">
          <mxGeometry x="40" y="420" width="90" height="40" as="geometry" />
        </mxCell>
        <mxCell id="C9lepdYtcVU4f9QdhHSY-197" value="" style="endArrow=none;html=1;rounded=0;entryX=0;entryY=0.5;entryDx=0;entryDy=0;exitX=1;exitY=0.5;exitDx=0;exitDy=0;" edge="1" parent="1" source="C9lepdYtcVU4f9QdhHSY-195" target="C9lepdYtcVU4f9QdhHSY-191">
          <mxGeometry width="50" height="50" relative="1" as="geometry">
            <mxPoint x="180" y="500" as="sourcePoint" />
            <mxPoint x="230" y="450" as="targetPoint" />
          </mxGeometry>
        </mxCell>
        <mxCell id="C9lepdYtcVU4f9QdhHSY-198" value="1:1" style="text;html=1;align=center;verticalAlign=middle;resizable=0;points=[];autosize=1;strokeColor=none;fillColor=none;" vertex="1" parent="1">
          <mxGeometry x="135" y="440" width="40" height="30" as="geometry" />
        </mxCell>
        <mxCell id="C9lepdYtcVU4f9QdhHSY-200" value="Informações Antigas" style="ellipse;whiteSpace=wrap;html=1;" vertex="1" parent="1">
          <mxGeometry x="20" y="350" width="90" height="50" as="geometry" />
        </mxCell>
        <mxCell id="C9lepdYtcVU4f9QdhHSY-201" value="" style="endArrow=none;html=1;rounded=0;" edge="1" parent="1" source="C9lepdYtcVU4f9QdhHSY-195" target="C9lepdYtcVU4f9QdhHSY-200">
          <mxGeometry width="50" height="50" relative="1" as="geometry">
            <mxPoint x="180" y="500" as="sourcePoint" />
            <mxPoint x="230" y="450" as="targetPoint" />
          </mxGeometry>
        </mxCell>
        <mxCell id="C9lepdYtcVU4f9QdhHSY-202" value="Possui" style="rhombus;whiteSpace=wrap;html=1;" vertex="1" parent="1">
          <mxGeometry x="210" y="520" width="70" height="40" as="geometry" />
        </mxCell>
        <mxCell id="C9lepdYtcVU4f9QdhHSY-203" value="" style="endArrow=none;html=1;rounded=0;entryX=0;entryY=1;entryDx=0;entryDy=0;" edge="1" parent="1" source="C9lepdYtcVU4f9QdhHSY-202" target="C9lepdYtcVU4f9QdhHSY-163">
          <mxGeometry width="50" height="50" relative="1" as="geometry">
            <mxPoint x="290" y="520" as="sourcePoint" />
            <mxPoint x="200" y="570" as="targetPoint" />
          </mxGeometry>
        </mxCell>
        <mxCell id="C9lepdYtcVU4f9QdhHSY-204" value="1:1" style="text;html=1;align=center;verticalAlign=middle;resizable=0;points=[];autosize=1;strokeColor=none;fillColor=none;" vertex="1" parent="1">
          <mxGeometry x="340" y="460" width="40" height="30" as="geometry" />
        </mxCell>
        <mxCell id="C9lepdYtcVU4f9QdhHSY-205" value="Registro" style="rounded=0;whiteSpace=wrap;html=1;" vertex="1" parent="1">
          <mxGeometry x="90" y="620" width="60" height="40" as="geometry" />
        </mxCell>
        <mxCell id="C9lepdYtcVU4f9QdhHSY-206" value="" style="endArrow=none;html=1;rounded=0;" edge="1" parent="1" source="C9lepdYtcVU4f9QdhHSY-205" target="C9lepdYtcVU4f9QdhHSY-202">
          <mxGeometry width="50" height="50" relative="1" as="geometry">
            <mxPoint x="210" y="610" as="sourcePoint" />
            <mxPoint x="260" y="560" as="targetPoint" />
          </mxGeometry>
        </mxCell>
        <mxCell id="C9lepdYtcVU4f9QdhHSY-207" value="Data Venda" style="ellipse;whiteSpace=wrap;html=1;" vertex="1" parent="1">
          <mxGeometry x="150" y="670" width="60" height="40" as="geometry" />
        </mxCell>
        <mxCell id="C9lepdYtcVU4f9QdhHSY-208" value="Pagamento" style="ellipse;whiteSpace=wrap;html=1;" vertex="1" parent="1">
          <mxGeometry x="60" y="570" width="80" height="30" as="geometry" />
        </mxCell>
        <mxCell id="C9lepdYtcVU4f9QdhHSY-209" value="Data Transação&amp;nbsp;" style="ellipse;whiteSpace=wrap;html=1;" vertex="1" parent="1">
          <mxGeometry x="180" y="610" width="80" height="40" as="geometry" />
        </mxCell>
        <mxCell id="C9lepdYtcVU4f9QdhHSY-210" value="Valor Final" style="ellipse;whiteSpace=wrap;html=1;" vertex="1" parent="1">
          <mxGeometry x="-20" y="640" width="80" height="30" as="geometry" />
        </mxCell>
        <mxCell id="C9lepdYtcVU4f9QdhHSY-211" value="Parte Imobiliaria" style="ellipse;whiteSpace=wrap;html=1;" vertex="1" parent="1">
          <mxGeometry x="-30" y="680" width="120" height="40" as="geometry" />
        </mxCell>
        <mxCell id="C9lepdYtcVU4f9QdhHSY-212" value="" style="endArrow=none;html=1;rounded=0;" edge="1" parent="1" source="C9lepdYtcVU4f9QdhHSY-205" target="C9lepdYtcVU4f9QdhHSY-210">
          <mxGeometry width="50" height="50" relative="1" as="geometry">
            <mxPoint x="130" y="610" as="sourcePoint" />
            <mxPoint x="180" y="560" as="targetPoint" />
          </mxGeometry>
        </mxCell>
        <mxCell id="C9lepdYtcVU4f9QdhHSY-213" value="" style="endArrow=none;html=1;rounded=0;" edge="1" parent="1" source="C9lepdYtcVU4f9QdhHSY-205" target="C9lepdYtcVU4f9QdhHSY-208">
          <mxGeometry width="50" height="50" relative="1" as="geometry">
            <mxPoint x="130" y="610" as="sourcePoint" />
            <mxPoint x="180" y="560" as="targetPoint" />
          </mxGeometry>
        </mxCell>
        <mxCell id="C9lepdYtcVU4f9QdhHSY-215" value="" style="endArrow=none;html=1;rounded=0;" edge="1" parent="1" source="C9lepdYtcVU4f9QdhHSY-205" target="C9lepdYtcVU4f9QdhHSY-211">
          <mxGeometry width="50" height="50" relative="1" as="geometry">
            <mxPoint x="130" y="610" as="sourcePoint" />
            <mxPoint x="180" y="560" as="targetPoint" />
          </mxGeometry>
        </mxCell>
        <mxCell id="C9lepdYtcVU4f9QdhHSY-216" value="" style="endArrow=none;html=1;rounded=0;" edge="1" parent="1" source="C9lepdYtcVU4f9QdhHSY-205" target="C9lepdYtcVU4f9QdhHSY-207">
          <mxGeometry width="50" height="50" relative="1" as="geometry">
            <mxPoint x="130" y="610" as="sourcePoint" />
            <mxPoint x="180" y="560" as="targetPoint" />
          </mxGeometry>
        </mxCell>
        <mxCell id="C9lepdYtcVU4f9QdhHSY-217" value="" style="endArrow=none;html=1;rounded=0;" edge="1" parent="1" source="C9lepdYtcVU4f9QdhHSY-205" target="C9lepdYtcVU4f9QdhHSY-209">
          <mxGeometry width="50" height="50" relative="1" as="geometry">
            <mxPoint x="130" y="610" as="sourcePoint" />
            <mxPoint x="180" y="560" as="targetPoint" />
          </mxGeometry>
        </mxCell>
        <mxCell id="C9lepdYtcVU4f9QdhHSY-218" value="1:1" style="text;html=1;align=center;verticalAlign=middle;resizable=0;points=[];autosize=1;strokeColor=none;fillColor=none;" vertex="1" parent="1">
          <mxGeometry x="120" y="595" width="40" height="30" as="geometry" />
        </mxCell>
        <mxCell id="C9lepdYtcVU4f9QdhHSY-219" value="Numero Contrato" style="ellipse;whiteSpace=wrap;html=1;" vertex="1" parent="1">
          <mxGeometry x="-30" y="595" width="110" height="40" as="geometry" />
        </mxCell>
        <mxCell id="C9lepdYtcVU4f9QdhHSY-220" value="" style="endArrow=none;html=1;rounded=0;" edge="1" parent="1" source="C9lepdYtcVU4f9QdhHSY-205" target="C9lepdYtcVU4f9QdhHSY-219">
          <mxGeometry width="50" height="50" relative="1" as="geometry">
            <mxPoint x="130" y="610" as="sourcePoint" />
            <mxPoint x="180" y="560" as="targetPoint" />
          </mxGeometry>
        </mxCell>
        <mxCell id="C9lepdYtcVU4f9QdhHSY-221" value="" style="endArrow=none;html=1;rounded=0;entryX=0.5;entryY=1;entryDx=0;entryDy=0;" edge="1" parent="1" target="C9lepdYtcVU4f9QdhHSY-205">
          <mxGeometry width="50" height="50" relative="1" as="geometry">
            <mxPoint x="120" y="720" as="sourcePoint" />
            <mxPoint x="180" y="700" as="targetPoint" />
          </mxGeometry>
        </mxCell>
        <mxCell id="C9lepdYtcVU4f9QdhHSY-222" value="Possui" style="rhombus;whiteSpace=wrap;html=1;" vertex="1" parent="1">
          <mxGeometry x="90" y="720" width="60" height="30" as="geometry" />
        </mxCell>
        <mxCell id="C9lepdYtcVU4f9QdhHSY-223" value="Cliente" style="rounded=0;whiteSpace=wrap;html=1;" vertex="1" parent="1">
          <mxGeometry x="90" y="800" width="60" height="40" as="geometry" />
        </mxCell>
        <mxCell id="C9lepdYtcVU4f9QdhHSY-224" value="" style="endArrow=none;html=1;rounded=0;entryX=0.5;entryY=1;entryDx=0;entryDy=0;exitX=0.5;exitY=0;exitDx=0;exitDy=0;" edge="1" parent="1" source="C9lepdYtcVU4f9QdhHSY-223" target="C9lepdYtcVU4f9QdhHSY-222">
          <mxGeometry width="50" height="50" relative="1" as="geometry">
            <mxPoint x="130" y="750" as="sourcePoint" />
            <mxPoint x="180" y="700" as="targetPoint" />
          </mxGeometry>
        </mxCell>
        <mxCell id="C9lepdYtcVU4f9QdhHSY-225" value="Sexo" style="ellipse;whiteSpace=wrap;html=1;" vertex="1" parent="1">
          <mxGeometry x="97.5" y="870" width="45" height="30" as="geometry" />
        </mxCell>
        <mxCell id="C9lepdYtcVU4f9QdhHSY-226" value="" style="endArrow=none;html=1;rounded=0;entryX=0.5;entryY=1;entryDx=0;entryDy=0;" edge="1" parent="1" source="C9lepdYtcVU4f9QdhHSY-225" target="C9lepdYtcVU4f9QdhHSY-223">
          <mxGeometry width="50" height="50" relative="1" as="geometry">
            <mxPoint x="130" y="890" as="sourcePoint" />
            <mxPoint x="180" y="840" as="targetPoint" />
          </mxGeometry>
        </mxCell>
        <mxCell id="C9lepdYtcVU4f9QdhHSY-227" value="Profissão" style="ellipse;whiteSpace=wrap;html=1;" vertex="1" parent="1">
          <mxGeometry x="140" y="860" width="75" height="30" as="geometry" />
        </mxCell>
        <mxCell id="C9lepdYtcVU4f9QdhHSY-229" value="CPF" style="ellipse;whiteSpace=wrap;html=1;" vertex="1" parent="1">
          <mxGeometry x="190" y="830" width="45" height="30" as="geometry" />
        </mxCell>
        <mxCell id="C9lepdYtcVU4f9QdhHSY-230" value="" style="endArrow=none;html=1;rounded=0;" edge="1" parent="1" source="C9lepdYtcVU4f9QdhHSY-227" target="C9lepdYtcVU4f9QdhHSY-223">
          <mxGeometry width="50" height="50" relative="1" as="geometry">
            <mxPoint x="130" y="890" as="sourcePoint" />
            <mxPoint x="180" y="840" as="targetPoint" />
          </mxGeometry>
        </mxCell>
        <mxCell id="C9lepdYtcVU4f9QdhHSY-231" value="" style="endArrow=none;html=1;rounded=0;" edge="1" parent="1" source="C9lepdYtcVU4f9QdhHSY-229" target="C9lepdYtcVU4f9QdhHSY-223">
          <mxGeometry width="50" height="50" relative="1" as="geometry">
            <mxPoint x="130" y="890" as="sourcePoint" />
            <mxPoint x="180" y="840" as="targetPoint" />
          </mxGeometry>
        </mxCell>
        <mxCell id="C9lepdYtcVU4f9QdhHSY-233" value="Endereço" style="ellipse;shape=doubleEllipse;whiteSpace=wrap;html=1;" vertex="1" parent="1">
          <mxGeometry x="185" y="780" width="70" height="40" as="geometry" />
        </mxCell>
        <mxCell id="C9lepdYtcVU4f9QdhHSY-235" value="" style="endArrow=none;html=1;rounded=0;" edge="1" parent="1" source="C9lepdYtcVU4f9QdhHSY-223" target="C9lepdYtcVU4f9QdhHSY-233">
          <mxGeometry width="50" height="50" relative="1" as="geometry">
            <mxPoint x="150" y="790" as="sourcePoint" />
            <mxPoint x="180" y="770" as="targetPoint" />
          </mxGeometry>
        </mxCell>
        <mxCell id="C9lepdYtcVU4f9QdhHSY-236" value="Nome" style="ellipse;whiteSpace=wrap;html=1;" vertex="1" parent="1">
          <mxGeometry x="140" y="760" width="50" height="30" as="geometry" />
        </mxCell>
        <mxCell id="C9lepdYtcVU4f9QdhHSY-237" value="" style="endArrow=none;html=1;rounded=0;entryX=0.5;entryY=1;entryDx=0;entryDy=0;exitX=1;exitY=0;exitDx=0;exitDy=0;" edge="1" parent="1" source="C9lepdYtcVU4f9QdhHSY-223" target="C9lepdYtcVU4f9QdhHSY-236">
          <mxGeometry width="50" height="50" relative="1" as="geometry">
            <mxPoint x="160" y="790" as="sourcePoint" />
            <mxPoint x="180" y="770" as="targetPoint" />
          </mxGeometry>
        </mxCell>
        <mxCell id="C9lepdYtcVU4f9QdhHSY-238" value="1:n" style="text;html=1;align=center;verticalAlign=middle;resizable=0;points=[];autosize=1;strokeColor=none;fillColor=none;" vertex="1" parent="1">
          <mxGeometry x="90" y="775" width="40" height="30" as="geometry" />
        </mxCell>
        <mxCell id="C9lepdYtcVU4f9QdhHSY-239" value="1:1" style="text;html=1;align=center;verticalAlign=middle;resizable=0;points=[];autosize=1;strokeColor=none;fillColor=none;" vertex="1" parent="1">
          <mxGeometry x="90" y="655" width="40" height="30" as="geometry" />
        </mxCell>
        <mxCell id="C9lepdYtcVU4f9QdhHSY-240" value="E-mail" style="ellipse;whiteSpace=wrap;html=1;" vertex="1" parent="1">
          <mxGeometry x="47.5" y="760" width="45" height="30" as="geometry" />
        </mxCell>
        <mxCell id="C9lepdYtcVU4f9QdhHSY-241" value="" style="endArrow=none;html=1;rounded=0;" edge="1" parent="1" source="C9lepdYtcVU4f9QdhHSY-223" target="C9lepdYtcVU4f9QdhHSY-240">
          <mxGeometry width="50" height="50" relative="1" as="geometry">
            <mxPoint x="60" y="820" as="sourcePoint" />
            <mxPoint x="110" y="770" as="targetPoint" />
          </mxGeometry>
        </mxCell>
        <mxCell id="C9lepdYtcVU4f9QdhHSY-242" value="Telefone" style="ellipse;whiteSpace=wrap;html=1;" vertex="1" parent="1">
          <mxGeometry x="-2.5" y="785" width="55" height="30" as="geometry" />
        </mxCell>
        <mxCell id="C9lepdYtcVU4f9QdhHSY-243" value="" style="endArrow=none;html=1;rounded=0;" edge="1" parent="1" source="C9lepdYtcVU4f9QdhHSY-223" target="C9lepdYtcVU4f9QdhHSY-242">
          <mxGeometry width="50" height="50" relative="1" as="geometry">
            <mxPoint x="60" y="820" as="sourcePoint" />
            <mxPoint x="110" y="770" as="targetPoint" />
          </mxGeometry>
        </mxCell>
        <mxCell id="C9lepdYtcVU4f9QdhHSY-244" value="Estado Civil" style="ellipse;whiteSpace=wrap;html=1;" vertex="1" parent="1">
          <mxGeometry x="20" y="840" width="65" height="40" as="geometry" />
        </mxCell>
        <mxCell id="C9lepdYtcVU4f9QdhHSY-245" value="" style="endArrow=none;html=1;rounded=0;" edge="1" parent="1" source="C9lepdYtcVU4f9QdhHSY-244" target="C9lepdYtcVU4f9QdhHSY-223">
          <mxGeometry width="50" height="50" relative="1" as="geometry">
            <mxPoint x="60" y="810" as="sourcePoint" />
            <mxPoint x="100" y="850" as="targetPoint" />
          </mxGeometry>
        </mxCell>
        <mxCell id="C9lepdYtcVU4f9QdhHSY-246" value="" style="endArrow=none;html=1;rounded=0;exitX=0;exitY=0.5;exitDx=0;exitDy=0;" edge="1" parent="1" source="C9lepdYtcVU4f9QdhHSY-247" target="C9lepdYtcVU4f9QdhHSY-223">
          <mxGeometry width="50" height="50" relative="1" as="geometry">
            <mxPoint x="-20" y="850" as="sourcePoint" />
            <mxPoint x="-60" y="760" as="targetPoint" />
          </mxGeometry>
        </mxCell>
        <mxCell id="C9lepdYtcVU4f9QdhHSY-247" value="" style="triangle;whiteSpace=wrap;html=1;rotation=-180;" vertex="1" parent="1">
          <mxGeometry x="-70" y="795" width="30" height="50" as="geometry" />
        </mxCell>
        <mxCell id="C9lepdYtcVU4f9QdhHSY-248" value="Cliente Proprietario" style="rounded=0;whiteSpace=wrap;html=1;" vertex="1" parent="1">
          <mxGeometry x="-190" y="855" width="110" height="40" as="geometry" />
        </mxCell>
        <mxCell id="C9lepdYtcVU4f9QdhHSY-249" value="" style="endArrow=none;html=1;rounded=0;exitX=0.5;exitY=0;exitDx=0;exitDy=0;entryX=0.5;entryY=0;entryDx=0;entryDy=0;" edge="1" parent="1" source="C9lepdYtcVU4f9QdhHSY-248" target="C9lepdYtcVU4f9QdhHSY-247">
          <mxGeometry width="50" height="50" relative="1" as="geometry">
            <mxPoint x="-120" y="810" as="sourcePoint" />
            <mxPoint x="-70" y="760" as="targetPoint" />
          </mxGeometry>
        </mxCell>
        <mxCell id="C9lepdYtcVU4f9QdhHSY-250" value="Cliente Usuario" style="rounded=0;whiteSpace=wrap;html=1;" vertex="1" parent="1">
          <mxGeometry x="-190" y="750" width="110" height="40" as="geometry" />
        </mxCell>
        <mxCell id="C9lepdYtcVU4f9QdhHSY-251" value="" style="endArrow=none;html=1;rounded=0;exitX=0.5;exitY=1;exitDx=0;exitDy=0;entryX=0.5;entryY=1;entryDx=0;entryDy=0;" edge="1" parent="1" source="C9lepdYtcVU4f9QdhHSY-250" target="C9lepdYtcVU4f9QdhHSY-247">
          <mxGeometry width="50" height="50" relative="1" as="geometry">
            <mxPoint x="-120" y="810" as="sourcePoint" />
            <mxPoint x="-70" y="760" as="targetPoint" />
          </mxGeometry>
        </mxCell>
        <mxCell id="C9lepdYtcVU4f9QdhHSY-252" value="Indicaçao" style="ellipse;whiteSpace=wrap;html=1;" vertex="1" parent="1">
          <mxGeometry x="-270" y="720" width="70" height="30" as="geometry" />
        </mxCell>
        <mxCell id="C9lepdYtcVU4f9QdhHSY-253" value="Fiador" style="ellipse;whiteSpace=wrap;html=1;" vertex="1" parent="1">
          <mxGeometry x="-260" y="770" width="60" height="30" as="geometry" />
        </mxCell>
        <mxCell id="C9lepdYtcVU4f9QdhHSY-254" value="" style="endArrow=none;html=1;rounded=0;entryX=0;entryY=0.5;entryDx=0;entryDy=0;" edge="1" parent="1" source="C9lepdYtcVU4f9QdhHSY-253" target="C9lepdYtcVU4f9QdhHSY-250">
          <mxGeometry width="50" height="50" relative="1" as="geometry">
            <mxPoint x="-120" y="810" as="sourcePoint" />
            <mxPoint x="-70" y="760" as="targetPoint" />
          </mxGeometry>
        </mxCell>
        <mxCell id="C9lepdYtcVU4f9QdhHSY-255" value="" style="endArrow=none;html=1;rounded=0;exitX=0;exitY=0.25;exitDx=0;exitDy=0;" edge="1" parent="1" source="C9lepdYtcVU4f9QdhHSY-250" target="C9lepdYtcVU4f9QdhHSY-252">
          <mxGeometry width="50" height="50" relative="1" as="geometry">
            <mxPoint x="-120" y="810" as="sourcePoint" />
            <mxPoint x="-70" y="760" as="targetPoint" />
          </mxGeometry>
        </mxCell>
        <mxCell id="C9lepdYtcVU4f9QdhHSY-256" value="" style="endArrow=none;html=1;rounded=0;entryX=1;entryY=0.5;entryDx=0;entryDy=0;" edge="1" parent="1" target="C9lepdYtcVU4f9QdhHSY-163">
          <mxGeometry width="50" height="50" relative="1" as="geometry">
            <mxPoint x="600" y="440" as="sourcePoint" />
            <mxPoint x="380" y="480" as="targetPoint" />
          </mxGeometry>
        </mxCell>
        <mxCell id="C9lepdYtcVU4f9QdhHSY-257" value="" style="triangle;whiteSpace=wrap;html=1;" vertex="1" parent="1">
          <mxGeometry x="600" y="420" width="30" height="40" as="geometry" />
        </mxCell>
        <mxCell id="C9lepdYtcVU4f9QdhHSY-259" value="Sala Comercial" style="rounded=0;whiteSpace=wrap;html=1;" vertex="1" parent="1">
          <mxGeometry x="560" y="570" width="80" height="40" as="geometry" />
        </mxCell>
        <mxCell id="C9lepdYtcVU4f9QdhHSY-260" value="" style="endArrow=none;html=1;rounded=0;entryX=0.5;entryY=0;entryDx=0;entryDy=0;exitX=0;exitY=0.75;exitDx=0;exitDy=0;" edge="1" parent="1" source="C9lepdYtcVU4f9QdhHSY-257" target="C9lepdYtcVU4f9QdhHSY-259">
          <mxGeometry width="50" height="50" relative="1" as="geometry">
            <mxPoint x="470" y="530" as="sourcePoint" />
            <mxPoint x="520" y="480" as="targetPoint" />
          </mxGeometry>
        </mxCell>
        <mxCell id="C9lepdYtcVU4f9QdhHSY-261" value="qtdComodos" style="ellipse;whiteSpace=wrap;html=1;" vertex="1" parent="1">
          <mxGeometry x="500" y="630" width="80" height="40" as="geometry" />
        </mxCell>
        <mxCell id="C9lepdYtcVU4f9QdhHSY-262" value="qtdBanheiros&lt;span style=&quot;color: rgba(0, 0, 0, 0); font-family: monospace; font-size: 0px; text-align: start;&quot;&gt;%3CmxGraphModel%3E%3Croot%3E%3CmxCell%20id%3D%220%22%2F%3E%3CmxCell%20id%3D%221%22%20parent%3D%220%22%2F%3E%3CmxCell%20id%3D%222%22%20value%3D%22qtdComodos%22%20style%3D%22ellipse%3BwhiteSpace%3Dwrap%3Bhtml%3D1%3B%22%20vertex%3D%221%22%20parent%3D%221%22%3E%3CmxGeometry%20x%3D%22490%22%20y%3D%22635%22%20width%3D%2280%22%20height%3D%2240%22%20as%3D%22geometry%22%2F%3E%3C%2FmxCell%3E%3C%2Froot%3E%3C%2FmxGraphModel%3E&lt;/span&gt;" style="ellipse;whiteSpace=wrap;html=1;" vertex="1" parent="1">
          <mxGeometry x="590" y="630" width="80" height="40" as="geometry" />
        </mxCell>
        <mxCell id="C9lepdYtcVU4f9QdhHSY-263" value="Area" style="ellipse;whiteSpace=wrap;html=1;" vertex="1" parent="1">
          <mxGeometry x="460" y="580" width="80" height="40" as="geometry" />
        </mxCell>
        <mxCell id="C9lepdYtcVU4f9QdhHSY-264" value="" style="endArrow=none;html=1;rounded=0;" edge="1" parent="1" source="C9lepdYtcVU4f9QdhHSY-259" target="C9lepdYtcVU4f9QdhHSY-262">
          <mxGeometry width="50" height="50" relative="1" as="geometry">
            <mxPoint x="470" y="530" as="sourcePoint" />
            <mxPoint x="520" y="480" as="targetPoint" />
          </mxGeometry>
        </mxCell>
        <mxCell id="C9lepdYtcVU4f9QdhHSY-265" value="" style="endArrow=none;html=1;rounded=0;" edge="1" parent="1" source="C9lepdYtcVU4f9QdhHSY-263" target="C9lepdYtcVU4f9QdhHSY-259">
          <mxGeometry width="50" height="50" relative="1" as="geometry">
            <mxPoint x="470" y="530" as="sourcePoint" />
            <mxPoint x="520" y="480" as="targetPoint" />
          </mxGeometry>
        </mxCell>
        <mxCell id="C9lepdYtcVU4f9QdhHSY-266" value="" style="endArrow=none;html=1;rounded=0;" edge="1" parent="1" source="C9lepdYtcVU4f9QdhHSY-261" target="C9lepdYtcVU4f9QdhHSY-259">
          <mxGeometry width="50" height="50" relative="1" as="geometry">
            <mxPoint x="470" y="530" as="sourcePoint" />
            <mxPoint x="520" y="480" as="targetPoint" />
          </mxGeometry>
        </mxCell>
        <mxCell id="C9lepdYtcVU4f9QdhHSY-267" value="" style="endArrow=none;html=1;rounded=0;" edge="1" parent="1" source="C9lepdYtcVU4f9QdhHSY-269" target="C9lepdYtcVU4f9QdhHSY-257">
          <mxGeometry width="50" height="50" relative="1" as="geometry">
            <mxPoint x="670" y="540" as="sourcePoint" />
            <mxPoint x="520" y="480" as="targetPoint" />
          </mxGeometry>
        </mxCell>
        <mxCell id="C9lepdYtcVU4f9QdhHSY-269" value="Terreno" style="rounded=0;whiteSpace=wrap;html=1;" vertex="1" parent="1">
          <mxGeometry x="750" y="550" width="70" height="30" as="geometry" />
        </mxCell>
        <mxCell id="C9lepdYtcVU4f9QdhHSY-270" value="Aclive" style="ellipse;whiteSpace=wrap;html=1;" vertex="1" parent="1">
          <mxGeometry x="790" y="592.5" width="60" height="30" as="geometry" />
        </mxCell>
        <mxCell id="C9lepdYtcVU4f9QdhHSY-271" value="Declive" style="ellipse;whiteSpace=wrap;html=1;" vertex="1" parent="1">
          <mxGeometry x="840" y="565" width="60" height="30" as="geometry" />
        </mxCell>
        <mxCell id="C9lepdYtcVU4f9QdhHSY-272" value="Area" style="ellipse;whiteSpace=wrap;html=1;" vertex="1" parent="1">
          <mxGeometry x="740" y="597.5" width="40" height="20" as="geometry" />
        </mxCell>
        <mxCell id="C9lepdYtcVU4f9QdhHSY-273" value="Comprimento" style="ellipse;whiteSpace=wrap;html=1;" vertex="1" parent="1">
          <mxGeometry x="760" y="510" width="80" height="30" as="geometry" />
        </mxCell>
        <mxCell id="C9lepdYtcVU4f9QdhHSY-274" value="Largura" style="ellipse;whiteSpace=wrap;html=1;" vertex="1" parent="1">
          <mxGeometry x="840" y="525" width="60" height="30" as="geometry" />
        </mxCell>
        <mxCell id="C9lepdYtcVU4f9QdhHSY-275" value="" style="endArrow=none;html=1;rounded=0;" edge="1" parent="1" source="C9lepdYtcVU4f9QdhHSY-273" target="C9lepdYtcVU4f9QdhHSY-269">
          <mxGeometry width="50" height="50" relative="1" as="geometry">
            <mxPoint x="690" y="600" as="sourcePoint" />
            <mxPoint x="740" y="550" as="targetPoint" />
          </mxGeometry>
        </mxCell>
        <mxCell id="C9lepdYtcVU4f9QdhHSY-276" value="" style="endArrow=none;html=1;rounded=0;" edge="1" parent="1" source="C9lepdYtcVU4f9QdhHSY-272" target="C9lepdYtcVU4f9QdhHSY-269">
          <mxGeometry width="50" height="50" relative="1" as="geometry">
            <mxPoint x="690" y="600" as="sourcePoint" />
            <mxPoint x="740" y="550" as="targetPoint" />
          </mxGeometry>
        </mxCell>
        <mxCell id="C9lepdYtcVU4f9QdhHSY-277" value="" style="endArrow=none;html=1;rounded=0;" edge="1" parent="1" source="C9lepdYtcVU4f9QdhHSY-270" target="C9lepdYtcVU4f9QdhHSY-269">
          <mxGeometry width="50" height="50" relative="1" as="geometry">
            <mxPoint x="690" y="600" as="sourcePoint" />
            <mxPoint x="740" y="550" as="targetPoint" />
          </mxGeometry>
        </mxCell>
        <mxCell id="C9lepdYtcVU4f9QdhHSY-278" value="" style="endArrow=none;html=1;rounded=0;" edge="1" parent="1" source="C9lepdYtcVU4f9QdhHSY-271" target="C9lepdYtcVU4f9QdhHSY-269">
          <mxGeometry width="50" height="50" relative="1" as="geometry">
            <mxPoint x="690" y="600" as="sourcePoint" />
            <mxPoint x="740" y="550" as="targetPoint" />
          </mxGeometry>
        </mxCell>
        <mxCell id="C9lepdYtcVU4f9QdhHSY-279" value="" style="endArrow=none;html=1;rounded=0;" edge="1" parent="1" source="C9lepdYtcVU4f9QdhHSY-269" target="C9lepdYtcVU4f9QdhHSY-274">
          <mxGeometry width="50" height="50" relative="1" as="geometry">
            <mxPoint x="690" y="600" as="sourcePoint" />
            <mxPoint x="740" y="550" as="targetPoint" />
          </mxGeometry>
        </mxCell>
        <mxCell id="C9lepdYtcVU4f9QdhHSY-280" value="Apartamento" style="rounded=0;whiteSpace=wrap;html=1;" vertex="1" parent="1">
          <mxGeometry x="747" y="310" width="80" height="40" as="geometry" />
        </mxCell>
        <mxCell id="C9lepdYtcVU4f9QdhHSY-281" value="" style="endArrow=none;html=1;rounded=0;" edge="1" parent="1" source="C9lepdYtcVU4f9QdhHSY-257" target="C9lepdYtcVU4f9QdhHSY-280">
          <mxGeometry width="50" height="50" relative="1" as="geometry">
            <mxPoint x="580" y="440" as="sourcePoint" />
            <mxPoint x="630" y="390" as="targetPoint" />
          </mxGeometry>
        </mxCell>
        <mxCell id="C9lepdYtcVU4f9QdhHSY-282" value="ValorCondominio" style="ellipse;whiteSpace=wrap;html=1;" vertex="1" parent="1">
          <mxGeometry x="727" y="380" width="100" height="30" as="geometry" />
        </mxCell>
        <mxCell id="C9lepdYtcVU4f9QdhHSY-284" value="Portaria24Horas" style="ellipse;whiteSpace=wrap;html=1;" vertex="1" parent="1">
          <mxGeometry x="630" y="335" width="100" height="35" as="geometry" />
        </mxCell>
        <mxCell id="C9lepdYtcVU4f9QdhHSY-285" value="ArmarioEmbutido" style="ellipse;whiteSpace=wrap;html=1;" vertex="1" parent="1">
          <mxGeometry x="827" y="365" width="120" height="30" as="geometry" />
        </mxCell>
        <mxCell id="C9lepdYtcVU4f9QdhHSY-286" value="qtdVagasGaragem" style="ellipse;whiteSpace=wrap;html=1;" vertex="1" parent="1">
          <mxGeometry x="875" y="280" width="110" height="40" as="geometry" />
        </mxCell>
        <mxCell id="C9lepdYtcVU4f9QdhHSY-287" value="qtdSalasDeEstar" style="ellipse;whiteSpace=wrap;html=1;" vertex="1" parent="1">
          <mxGeometry x="870" y="330" width="120" height="30" as="geometry" />
        </mxCell>
        <mxCell id="C9lepdYtcVU4f9QdhHSY-288" value="qtdSalasDeJantar" style="ellipse;whiteSpace=wrap;html=1;" vertex="1" parent="1">
          <mxGeometry x="815" y="250" width="110" height="30" as="geometry" />
        </mxCell>
        <mxCell id="C9lepdYtcVU4f9QdhHSY-290" value="Area" style="ellipse;whiteSpace=wrap;html=1;" vertex="1" parent="1">
          <mxGeometry x="650" y="310" width="50" height="20" as="geometry" />
        </mxCell>
        <mxCell id="C9lepdYtcVU4f9QdhHSY-291" value="Andar" style="ellipse;whiteSpace=wrap;html=1;" vertex="1" parent="1">
          <mxGeometry x="690" y="280" width="50" height="30" as="geometry" />
        </mxCell>
        <mxCell id="C9lepdYtcVU4f9QdhHSY-292" value="qtdQuartos" style="ellipse;whiteSpace=wrap;html=1;" vertex="1" parent="1">
          <mxGeometry x="710" y="250" width="70" height="30" as="geometry" />
        </mxCell>
        <mxCell id="C9lepdYtcVU4f9QdhHSY-293" value="qtdSuites" style="ellipse;whiteSpace=wrap;html=1;" vertex="1" parent="1">
          <mxGeometry x="770" y="230" width="60" height="30" as="geometry" />
        </mxCell>
        <mxCell id="C9lepdYtcVU4f9QdhHSY-294" value="" style="endArrow=none;html=1;rounded=0;" edge="1" parent="1" source="C9lepdYtcVU4f9QdhHSY-282" target="C9lepdYtcVU4f9QdhHSY-280">
          <mxGeometry width="50" height="50" relative="1" as="geometry">
            <mxPoint x="710" y="380" as="sourcePoint" />
            <mxPoint x="760" y="330" as="targetPoint" />
          </mxGeometry>
        </mxCell>
        <mxCell id="C9lepdYtcVU4f9QdhHSY-295" value="" style="endArrow=none;html=1;rounded=0;" edge="1" parent="1" source="C9lepdYtcVU4f9QdhHSY-285" target="C9lepdYtcVU4f9QdhHSY-280">
          <mxGeometry width="50" height="50" relative="1" as="geometry">
            <mxPoint x="710" y="380" as="sourcePoint" />
            <mxPoint x="760" y="330" as="targetPoint" />
          </mxGeometry>
        </mxCell>
        <mxCell id="C9lepdYtcVU4f9QdhHSY-296" value="" style="endArrow=none;html=1;rounded=0;" edge="1" parent="1" source="C9lepdYtcVU4f9QdhHSY-280" target="C9lepdYtcVU4f9QdhHSY-293">
          <mxGeometry width="50" height="50" relative="1" as="geometry">
            <mxPoint x="710" y="380" as="sourcePoint" />
            <mxPoint x="760" y="330" as="targetPoint" />
          </mxGeometry>
        </mxCell>
        <mxCell id="C9lepdYtcVU4f9QdhHSY-297" value="" style="endArrow=none;html=1;rounded=0;" edge="1" parent="1" source="C9lepdYtcVU4f9QdhHSY-280" target="C9lepdYtcVU4f9QdhHSY-288">
          <mxGeometry width="50" height="50" relative="1" as="geometry">
            <mxPoint x="710" y="380" as="sourcePoint" />
            <mxPoint x="760" y="330" as="targetPoint" />
          </mxGeometry>
        </mxCell>
        <mxCell id="C9lepdYtcVU4f9QdhHSY-298" value="" style="endArrow=none;html=1;rounded=0;" edge="1" parent="1" source="C9lepdYtcVU4f9QdhHSY-280" target="C9lepdYtcVU4f9QdhHSY-286">
          <mxGeometry width="50" height="50" relative="1" as="geometry">
            <mxPoint x="710" y="380" as="sourcePoint" />
            <mxPoint x="760" y="330" as="targetPoint" />
          </mxGeometry>
        </mxCell>
        <mxCell id="C9lepdYtcVU4f9QdhHSY-299" value="" style="endArrow=none;html=1;rounded=0;" edge="1" parent="1" source="C9lepdYtcVU4f9QdhHSY-280" target="C9lepdYtcVU4f9QdhHSY-287">
          <mxGeometry width="50" height="50" relative="1" as="geometry">
            <mxPoint x="710" y="380" as="sourcePoint" />
            <mxPoint x="760" y="330" as="targetPoint" />
          </mxGeometry>
        </mxCell>
        <mxCell id="C9lepdYtcVU4f9QdhHSY-300" value="" style="endArrow=none;html=1;rounded=0;" edge="1" parent="1" source="C9lepdYtcVU4f9QdhHSY-280" target="C9lepdYtcVU4f9QdhHSY-292">
          <mxGeometry width="50" height="50" relative="1" as="geometry">
            <mxPoint x="710" y="380" as="sourcePoint" />
            <mxPoint x="760" y="330" as="targetPoint" />
          </mxGeometry>
        </mxCell>
        <mxCell id="C9lepdYtcVU4f9QdhHSY-301" value="" style="endArrow=none;html=1;rounded=0;" edge="1" parent="1" source="C9lepdYtcVU4f9QdhHSY-280" target="C9lepdYtcVU4f9QdhHSY-291">
          <mxGeometry width="50" height="50" relative="1" as="geometry">
            <mxPoint x="710" y="380" as="sourcePoint" />
            <mxPoint x="760" y="330" as="targetPoint" />
          </mxGeometry>
        </mxCell>
        <mxCell id="C9lepdYtcVU4f9QdhHSY-302" value="" style="endArrow=none;html=1;rounded=0;" edge="1" parent="1" source="C9lepdYtcVU4f9QdhHSY-280" target="C9lepdYtcVU4f9QdhHSY-290">
          <mxGeometry width="50" height="50" relative="1" as="geometry">
            <mxPoint x="710" y="380" as="sourcePoint" />
            <mxPoint x="760" y="330" as="targetPoint" />
          </mxGeometry>
        </mxCell>
        <mxCell id="C9lepdYtcVU4f9QdhHSY-303" value="" style="endArrow=none;html=1;rounded=0;" edge="1" parent="1" source="C9lepdYtcVU4f9QdhHSY-280" target="C9lepdYtcVU4f9QdhHSY-284">
          <mxGeometry width="50" height="50" relative="1" as="geometry">
            <mxPoint x="710" y="380" as="sourcePoint" />
            <mxPoint x="760" y="330" as="targetPoint" />
          </mxGeometry>
        </mxCell>
        <mxCell id="C9lepdYtcVU4f9QdhHSY-304" value="" style="endArrow=none;html=1;rounded=0;entryX=0;entryY=0.25;entryDx=0;entryDy=0;" edge="1" parent="1" source="C9lepdYtcVU4f9QdhHSY-305" target="C9lepdYtcVU4f9QdhHSY-257">
          <mxGeometry width="50" height="50" relative="1" as="geometry">
            <mxPoint x="610" y="220" as="sourcePoint" />
            <mxPoint x="760" y="400" as="targetPoint" />
          </mxGeometry>
        </mxCell>
        <mxCell id="C9lepdYtcVU4f9QdhHSY-305" value="Casa" style="rounded=0;whiteSpace=wrap;html=1;" vertex="1" parent="1">
          <mxGeometry x="572.5" y="180" width="55" height="30" as="geometry" />
        </mxCell>
        <mxCell id="C9lepdYtcVU4f9QdhHSY-306" value="Area" style="ellipse;whiteSpace=wrap;html=1;" vertex="1" parent="1">
          <mxGeometry x="550" y="230" width="40" height="30" as="geometry" />
        </mxCell>
        <mxCell id="C9lepdYtcVU4f9QdhHSY-307" value="" style="endArrow=none;html=1;rounded=0;" edge="1" parent="1" source="C9lepdYtcVU4f9QdhHSY-306" target="C9lepdYtcVU4f9QdhHSY-305">
          <mxGeometry width="50" height="50" relative="1" as="geometry">
            <mxPoint x="710" y="310" as="sourcePoint" />
            <mxPoint x="760" y="260" as="targetPoint" />
          </mxGeometry>
        </mxCell>
        <mxCell id="C9lepdYtcVU4f9QdhHSY-308" value="Armario Embutido" style="ellipse;whiteSpace=wrap;html=1;" vertex="1" parent="1">
          <mxGeometry x="490" y="200" width="60" height="50" as="geometry" />
        </mxCell>
        <mxCell id="C9lepdYtcVU4f9QdhHSY-309" value="" style="endArrow=none;html=1;rounded=0;" edge="1" parent="1" source="C9lepdYtcVU4f9QdhHSY-308" target="C9lepdYtcVU4f9QdhHSY-305">
          <mxGeometry width="50" height="50" relative="1" as="geometry">
            <mxPoint x="710" y="310" as="sourcePoint" />
            <mxPoint x="760" y="260" as="targetPoint" />
          </mxGeometry>
        </mxCell>
        <mxCell id="C9lepdYtcVU4f9QdhHSY-310" value="qtdSalasDeJantar" style="ellipse;whiteSpace=wrap;html=1;" vertex="1" parent="1">
          <mxGeometry x="452.5" y="140" width="105" height="50" as="geometry" />
        </mxCell>
        <mxCell id="C9lepdYtcVU4f9QdhHSY-311" value="" style="endArrow=none;html=1;rounded=0;" edge="1" parent="1" source="C9lepdYtcVU4f9QdhHSY-305" target="C9lepdYtcVU4f9QdhHSY-310">
          <mxGeometry width="50" height="50" relative="1" as="geometry">
            <mxPoint x="710" y="250" as="sourcePoint" />
            <mxPoint x="760" y="200" as="targetPoint" />
          </mxGeometry>
        </mxCell>
        <mxCell id="C9lepdYtcVU4f9QdhHSY-312" value="qtdSalasDeEstar" style="ellipse;whiteSpace=wrap;html=1;" vertex="1" parent="1">
          <mxGeometry x="510" y="100" width="105" height="40" as="geometry" />
        </mxCell>
        <mxCell id="C9lepdYtcVU4f9QdhHSY-313" value="" style="endArrow=none;html=1;rounded=0;" edge="1" parent="1" source="C9lepdYtcVU4f9QdhHSY-305" target="C9lepdYtcVU4f9QdhHSY-312">
          <mxGeometry width="50" height="50" relative="1" as="geometry">
            <mxPoint x="710" y="260" as="sourcePoint" />
            <mxPoint x="760" y="210" as="targetPoint" />
          </mxGeometry>
        </mxCell>
        <mxCell id="C9lepdYtcVU4f9QdhHSY-315" value="qtdSuites" style="ellipse;whiteSpace=wrap;html=1;" vertex="1" parent="1">
          <mxGeometry x="615" y="110" width="70" height="40" as="geometry" />
        </mxCell>
        <mxCell id="C9lepdYtcVU4f9QdhHSY-316" value="" style="endArrow=none;html=1;rounded=0;" edge="1" parent="1" source="C9lepdYtcVU4f9QdhHSY-305" target="C9lepdYtcVU4f9QdhHSY-315">
          <mxGeometry width="50" height="50" relative="1" as="geometry">
            <mxPoint x="710" y="270" as="sourcePoint" />
            <mxPoint x="760" y="220" as="targetPoint" />
          </mxGeometry>
        </mxCell>
        <mxCell id="C9lepdYtcVU4f9QdhHSY-317" value="Descrição" style="ellipse;whiteSpace=wrap;html=1;" vertex="1" parent="1">
          <mxGeometry x="650" y="150" width="63" height="40" as="geometry" />
        </mxCell>
        <mxCell id="C9lepdYtcVU4f9QdhHSY-318" value="" style="endArrow=none;html=1;rounded=0;" edge="1" parent="1" source="C9lepdYtcVU4f9QdhHSY-305" target="C9lepdYtcVU4f9QdhHSY-317">
          <mxGeometry width="50" height="50" relative="1" as="geometry">
            <mxPoint x="710" y="280" as="sourcePoint" />
            <mxPoint x="760" y="230" as="targetPoint" />
          </mxGeometry>
        </mxCell>
        <mxCell id="C9lepdYtcVU4f9QdhHSY-320" value="qtdVagasGaragem" style="ellipse;whiteSpace=wrap;html=1;" vertex="1" parent="1">
          <mxGeometry x="643" y="190" width="107" height="40" as="geometry" />
        </mxCell>
        <mxCell id="C9lepdYtcVU4f9QdhHSY-321" value="" style="endArrow=none;html=1;rounded=0;" edge="1" parent="1" source="C9lepdYtcVU4f9QdhHSY-320" target="C9lepdYtcVU4f9QdhHSY-305">
          <mxGeometry width="50" height="50" relative="1" as="geometry">
            <mxPoint x="710" y="280" as="sourcePoint" />
            <mxPoint x="760" y="230" as="targetPoint" />
          </mxGeometry>
        </mxCell>
        <mxCell id="C9lepdYtcVU4f9QdhHSY-322" value="qtdQuartos" style="ellipse;whiteSpace=wrap;html=1;" vertex="1" parent="1">
          <mxGeometry x="605" y="240" width="80" height="40" as="geometry" />
        </mxCell>
        <mxCell id="C9lepdYtcVU4f9QdhHSY-324" value="" style="endArrow=none;html=1;rounded=0;" edge="1" parent="1" source="C9lepdYtcVU4f9QdhHSY-322" target="C9lepdYtcVU4f9QdhHSY-305">
          <mxGeometry width="50" height="50" relative="1" as="geometry">
            <mxPoint x="710" y="290" as="sourcePoint" />
            <mxPoint x="760" y="240" as="targetPoint" />
          </mxGeometry>
        </mxCell>
        <mxCell id="C9lepdYtcVU4f9QdhHSY-326" value="Funcionario" style="rounded=0;whiteSpace=wrap;html=1;" vertex="1" parent="1">
          <mxGeometry x="-250" y="550" width="80" height="45" as="geometry" />
        </mxCell>
        <mxCell id="C9lepdYtcVU4f9QdhHSY-328" value="Usuario" style="ellipse;whiteSpace=wrap;html=1;" vertex="1" parent="1">
          <mxGeometry x="-290" y="500" width="50" height="30" as="geometry" />
        </mxCell>
        <mxCell id="C9lepdYtcVU4f9QdhHSY-329" value="CPF&lt;span style=&quot;color: rgba(0, 0, 0, 0); font-family: monospace; font-size: 0px; text-align: start;&quot;&gt;%3CmxGraphModel%3E%3Croot%3E%3CmxCell%20id%3D%220%22%2F%3E%3CmxCell%20id%3D%221%22%20parent%3D%220%22%2F%3E%3CmxCell%20id%3D%222%22%20value%3D%22Usuario%22%20style%3D%22ellipse%3BwhiteSpace%3Dwrap%3Bhtml%3D1%3B%22%20vertex%3D%221%22%20parent%3D%221%22%3E%3CmxGeometry%20x%3D%22-190%22%20y%3D%22530%22%20width%3D%2250%22%20height%3D%2230%22%20as%3D%22geometry%22%2F%3E%3C%2FmxCell%3E%3C%2Froot%3E%3C%2FmxGraphModel%3E&lt;/span&gt;" style="ellipse;whiteSpace=wrap;html=1;" vertex="1" parent="1">
          <mxGeometry x="-120" y="540" width="30" height="20" as="geometry" />
        </mxCell>
        <mxCell id="C9lepdYtcVU4f9QdhHSY-330" value="Nome" style="ellipse;whiteSpace=wrap;html=1;" vertex="1" parent="1">
          <mxGeometry x="-330" y="515" width="40" height="30" as="geometry" />
        </mxCell>
        <mxCell id="C9lepdYtcVU4f9QdhHSY-331" value="Senha" style="ellipse;whiteSpace=wrap;html=1;" vertex="1" parent="1">
          <mxGeometry x="-195" y="495" width="50" height="30" as="geometry" />
        </mxCell>
        <mxCell id="C9lepdYtcVU4f9QdhHSY-332" value="Sexo" style="ellipse;whiteSpace=wrap;html=1;" vertex="1" parent="1">
          <mxGeometry x="-330" y="577.5" width="40" height="25" as="geometry" />
        </mxCell>
        <mxCell id="C9lepdYtcVU4f9QdhHSY-333" value="DataIngressão" style="ellipse;whiteSpace=wrap;html=1;" vertex="1" parent="1">
          <mxGeometry x="-190" y="605" width="90" height="40" as="geometry" />
        </mxCell>
        <mxCell id="C9lepdYtcVU4f9QdhHSY-334" value="Estado Civil" style="ellipse;whiteSpace=wrap;html=1;" vertex="1" parent="1">
          <mxGeometry x="-270" y="617.5" width="80" height="30" as="geometry" />
        </mxCell>
        <mxCell id="C9lepdYtcVU4f9QdhHSY-335" value="Cargo" style="ellipse;whiteSpace=wrap;html=1;" vertex="1" parent="1">
          <mxGeometry x="-320" y="605" width="50" height="30" as="geometry" />
        </mxCell>
        <mxCell id="C9lepdYtcVU4f9QdhHSY-336" value="Email" style="ellipse;whiteSpace=wrap;html=1;" vertex="1" parent="1">
          <mxGeometry x="-340" y="545" width="50" height="30" as="geometry" />
        </mxCell>
        <mxCell id="C9lepdYtcVU4f9QdhHSY-337" value="Telefone" style="ellipse;whiteSpace=wrap;html=1;" vertex="1" parent="1">
          <mxGeometry x="-150" y="510" width="50" height="30" as="geometry" />
        </mxCell>
        <mxCell id="C9lepdYtcVU4f9QdhHSY-338" value="Endereço" style="ellipse;shape=doubleEllipse;whiteSpace=wrap;html=1;" vertex="1" parent="1">
          <mxGeometry x="-152.5" y="565" width="75" height="40" as="geometry" />
        </mxCell>
        <mxCell id="C9lepdYtcVU4f9QdhHSY-340" value="" style="endArrow=none;html=1;rounded=0;" edge="1" parent="1" source="C9lepdYtcVU4f9QdhHSY-326" target="C9lepdYtcVU4f9QdhHSY-328">
          <mxGeometry width="50" height="50" relative="1" as="geometry">
            <mxPoint x="-140" y="560" as="sourcePoint" />
            <mxPoint x="-90" y="510" as="targetPoint" />
          </mxGeometry>
        </mxCell>
        <mxCell id="C9lepdYtcVU4f9QdhHSY-341" value="" style="endArrow=none;html=1;rounded=0;" edge="1" parent="1" source="C9lepdYtcVU4f9QdhHSY-326" target="C9lepdYtcVU4f9QdhHSY-330">
          <mxGeometry width="50" height="50" relative="1" as="geometry">
            <mxPoint x="-140" y="560" as="sourcePoint" />
            <mxPoint x="-90" y="510" as="targetPoint" />
          </mxGeometry>
        </mxCell>
        <mxCell id="C9lepdYtcVU4f9QdhHSY-342" value="" style="endArrow=none;html=1;rounded=0;" edge="1" parent="1" source="C9lepdYtcVU4f9QdhHSY-326" target="C9lepdYtcVU4f9QdhHSY-336">
          <mxGeometry width="50" height="50" relative="1" as="geometry">
            <mxPoint x="-140" y="560" as="sourcePoint" />
            <mxPoint x="-90" y="510" as="targetPoint" />
          </mxGeometry>
        </mxCell>
        <mxCell id="C9lepdYtcVU4f9QdhHSY-343" value="" style="endArrow=none;html=1;rounded=0;" edge="1" parent="1" source="C9lepdYtcVU4f9QdhHSY-326" target="C9lepdYtcVU4f9QdhHSY-332">
          <mxGeometry width="50" height="50" relative="1" as="geometry">
            <mxPoint x="-260" y="600" as="sourcePoint" />
            <mxPoint x="-90" y="510" as="targetPoint" />
          </mxGeometry>
        </mxCell>
        <mxCell id="C9lepdYtcVU4f9QdhHSY-344" value="" style="endArrow=none;html=1;rounded=0;" edge="1" parent="1" source="C9lepdYtcVU4f9QdhHSY-335" target="C9lepdYtcVU4f9QdhHSY-326">
          <mxGeometry width="50" height="50" relative="1" as="geometry">
            <mxPoint x="-140" y="560" as="sourcePoint" />
            <mxPoint x="-90" y="510" as="targetPoint" />
          </mxGeometry>
        </mxCell>
        <mxCell id="C9lepdYtcVU4f9QdhHSY-345" value="" style="endArrow=none;html=1;rounded=0;" edge="1" parent="1" source="C9lepdYtcVU4f9QdhHSY-334" target="C9lepdYtcVU4f9QdhHSY-326">
          <mxGeometry width="50" height="50" relative="1" as="geometry">
            <mxPoint x="-140" y="560" as="sourcePoint" />
            <mxPoint x="-90" y="510" as="targetPoint" />
          </mxGeometry>
        </mxCell>
        <mxCell id="C9lepdYtcVU4f9QdhHSY-346" value="" style="endArrow=none;html=1;rounded=0;" edge="1" parent="1" source="C9lepdYtcVU4f9QdhHSY-333" target="C9lepdYtcVU4f9QdhHSY-326">
          <mxGeometry width="50" height="50" relative="1" as="geometry">
            <mxPoint x="-140" y="560" as="sourcePoint" />
            <mxPoint x="-90" y="510" as="targetPoint" />
          </mxGeometry>
        </mxCell>
        <mxCell id="C9lepdYtcVU4f9QdhHSY-347" value="" style="endArrow=none;html=1;rounded=0;" edge="1" parent="1" source="C9lepdYtcVU4f9QdhHSY-331" target="C9lepdYtcVU4f9QdhHSY-326">
          <mxGeometry width="50" height="50" relative="1" as="geometry">
            <mxPoint x="-140" y="560" as="sourcePoint" />
            <mxPoint x="-90" y="510" as="targetPoint" />
          </mxGeometry>
        </mxCell>
        <mxCell id="C9lepdYtcVU4f9QdhHSY-348" value="" style="endArrow=none;html=1;rounded=0;" edge="1" parent="1" source="C9lepdYtcVU4f9QdhHSY-326" target="C9lepdYtcVU4f9QdhHSY-337">
          <mxGeometry width="50" height="50" relative="1" as="geometry">
            <mxPoint x="-140" y="560" as="sourcePoint" />
            <mxPoint x="-90" y="510" as="targetPoint" />
          </mxGeometry>
        </mxCell>
        <mxCell id="C9lepdYtcVU4f9QdhHSY-349" value="" style="endArrow=none;html=1;rounded=0;" edge="1" parent="1" source="C9lepdYtcVU4f9QdhHSY-326" target="C9lepdYtcVU4f9QdhHSY-329">
          <mxGeometry width="50" height="50" relative="1" as="geometry">
            <mxPoint x="-140" y="560" as="sourcePoint" />
            <mxPoint x="-90" y="510" as="targetPoint" />
          </mxGeometry>
        </mxCell>
        <mxCell id="C9lepdYtcVU4f9QdhHSY-350" value="" style="endArrow=none;html=1;rounded=0;" edge="1" parent="1" source="C9lepdYtcVU4f9QdhHSY-326" target="C9lepdYtcVU4f9QdhHSY-338">
          <mxGeometry width="50" height="50" relative="1" as="geometry">
            <mxPoint x="-140" y="560" as="sourcePoint" />
            <mxPoint x="-90" y="510" as="targetPoint" />
          </mxGeometry>
        </mxCell>
        <mxCell id="C9lepdYtcVU4f9QdhHSY-351" value="" style="endArrow=none;html=1;rounded=0;" edge="1" parent="1" source="C9lepdYtcVU4f9QdhHSY-353" target="C9lepdYtcVU4f9QdhHSY-326">
          <mxGeometry width="50" height="50" relative="1" as="geometry">
            <mxPoint x="-140" y="500" as="sourcePoint" />
            <mxPoint x="-90" y="450" as="targetPoint" />
          </mxGeometry>
        </mxCell>
        <mxCell id="C9lepdYtcVU4f9QdhHSY-353" value="Possui" style="rhombus;whiteSpace=wrap;html=1;" vertex="1" parent="1">
          <mxGeometry x="-245" y="440" width="70" height="40" as="geometry" />
        </mxCell>
        <mxCell id="C9lepdYtcVU4f9QdhHSY-354" value="1:1" style="text;html=1;align=center;verticalAlign=middle;resizable=0;points=[];autosize=1;strokeColor=none;fillColor=none;" vertex="1" parent="1">
          <mxGeometry x="-245" y="525" width="40" height="30" as="geometry" />
        </mxCell>
        <mxCell id="C9lepdYtcVU4f9QdhHSY-355" value="Cargo" style="rounded=0;whiteSpace=wrap;html=1;" vertex="1" parent="1">
          <mxGeometry x="-250" y="345" width="80" height="30" as="geometry" />
        </mxCell>
        <mxCell id="C9lepdYtcVU4f9QdhHSY-356" value="" style="endArrow=none;html=1;rounded=0;" edge="1" parent="1" source="C9lepdYtcVU4f9QdhHSY-353" target="C9lepdYtcVU4f9QdhHSY-355">
          <mxGeometry width="50" height="50" relative="1" as="geometry">
            <mxPoint x="-140" y="430" as="sourcePoint" />
            <mxPoint x="-90" y="380" as="targetPoint" />
          </mxGeometry>
        </mxCell>
        <mxCell id="C9lepdYtcVU4f9QdhHSY-357" value="1:n" style="text;html=1;align=center;verticalAlign=middle;resizable=0;points=[];autosize=1;strokeColor=none;fillColor=none;" vertex="1" parent="1">
          <mxGeometry x="-245" y="370" width="40" height="30" as="geometry" />
        </mxCell>
        <mxCell id="C9lepdYtcVU4f9QdhHSY-358" value="Cargo Empresa" style="ellipse;whiteSpace=wrap;html=1;" vertex="1" parent="1">
          <mxGeometry x="-200" y="290" width="90" height="50" as="geometry" />
        </mxCell>
        <mxCell id="C9lepdYtcVU4f9QdhHSY-359" value="Salario" style="ellipse;whiteSpace=wrap;html=1;" vertex="1" parent="1">
          <mxGeometry x="-280" y="300" width="50" height="30" as="geometry" />
        </mxCell>
        <mxCell id="C9lepdYtcVU4f9QdhHSY-360" value="" style="endArrow=none;html=1;rounded=0;" edge="1" parent="1" source="C9lepdYtcVU4f9QdhHSY-355" target="C9lepdYtcVU4f9QdhHSY-359">
          <mxGeometry width="50" height="50" relative="1" as="geometry">
            <mxPoint x="-140" y="390" as="sourcePoint" />
            <mxPoint x="-90" y="340" as="targetPoint" />
          </mxGeometry>
        </mxCell>
        <mxCell id="C9lepdYtcVU4f9QdhHSY-361" value="" style="endArrow=none;html=1;rounded=0;" edge="1" parent="1" source="C9lepdYtcVU4f9QdhHSY-355" target="C9lepdYtcVU4f9QdhHSY-358">
          <mxGeometry width="50" height="50" relative="1" as="geometry">
            <mxPoint x="-140" y="390" as="sourcePoint" />
            <mxPoint x="-90" y="340" as="targetPoint" />
          </mxGeometry>
        </mxCell>
      </root>
    </mxGraphModel>
  </diagram>
</mxfile>
